<svg width="22" height="22" id="3" viewBox="0 0 22 22" fill="none" xmlns="http://www.w3.org/2000/svg">
<path d="M0.565685 20.3054C0.253266 19.993 0.253266 19.4865 0.565685 19.174L8.17404 11.5657C8.48646 11.2533 8.48646 10.7467 8.17404 10.4343L0.565686 2.82596C0.253266 2.51354 0.253266 2.00701 0.565685 1.69459L1.69459 0.565685C2.00701 0.253266 2.51354 0.253266 2.82596 0.565685L10.4343 8.17404C10.7467 8.48646 11.2533 8.48646 11.5657 8.17404L19.1525 0.587211C19.4649 0.274792 19.9715 0.274792 20.2839 0.587211L21.4128 1.71611C21.7252 2.02853 21.7252 2.53507 21.4128 2.84749L13.826 10.4343C13.5135 10.7467 13.5135 11.2533 13.826 11.5657L21.4343 19.174C21.7467 19.4865 21.7467 19.993 21.4343 20.3054L20.3054 21.4343C19.993 21.7467 19.4865 21.7467 19.174 21.4343L11.5657 13.826C11.2533 13.5135 10.7467 13.5135 10.4343 13.826L2.82596 21.4343C2.51354 21.7467 2.00701 21.7467 1.69459 21.4343L0.565685 20.3054Z" fill="white" stroke="white" stroke-width="0.2"/>
</svg>
