<svg width="23" height="18" id="2" viewBox="0 0 23 18" fill="none" xmlns="http://www.w3.org/2000/svg">
<path d="M21.3393 2.9033L1.66073 2.9033C1.29863 2.9033 1.00492 2.41194 1.00509 1.80663C1.00525 1.20123 1.29927 0.709963 1.66132 0.709963L21.3399 0.709961C21.702 0.709961 21.9957 1.20132 21.9956 1.80663C21.9954 2.41194 21.7014 2.9033 21.3393 2.9033Z" fill="white" stroke="white" stroke-width="0.2"/>
<path d="M1.65888 7.90332L21.3375 7.90332C21.6996 7.90332 21.9933 8.39468 21.9931 8.99998C21.9929 9.60529 21.6989 10.0966 21.3369 10.0966L1.65829 10.0966C1.29619 10.0966 1.00248 9.60529 1.00265 8.99998C1.00281 8.39468 1.29678 7.90332 1.65888 7.90332Z" fill="white" stroke="white" stroke-width="0.2"/>
<path d="M1.65668 15.0967L21.3353 15.0967C21.6974 15.0967 21.9911 15.588 21.9909 16.1933C21.9908 16.7986 21.6967 17.29 21.3347 17.29L1.65609 17.29C1.29399 17.29 1.00029 16.7987 1.00045 16.1933C1.00061 15.588 1.29458 15.0967 1.65668 15.0967Z" fill="white" stroke="white" stroke-width="0.2"/>
</svg>
