<svg width="18" height="19" id="3" viewBox="0 0 18 19" fill="none" xmlns="http://www.w3.org/2000/svg">
<path d="M0.561535 17.4263C0.249116 17.1139 0.249116 16.6074 0.561535 16.295L6.58085 10.2756C6.89327 9.96323 6.89327 9.4567 6.58085 9.14428L0.561535 3.12496C0.249115 2.81254 0.249116 2.30601 0.561535 1.99359L1.27948 1.27565C1.5919 0.963227 2.09843 0.963227 2.41085 1.27565L8.43017 7.29496C8.74258 7.60738 9.24912 7.60738 9.56153 7.29496L15.5632 1.29326C15.8757 0.98084 16.3822 0.980839 16.6946 1.29326L17.4126 2.0112C17.725 2.32362 17.725 2.83015 17.4126 3.14257L11.4109 9.14427C11.0984 9.45669 11.0984 9.96323 11.4109 10.2756L17.4302 16.295C17.7426 16.6074 17.7426 17.1139 17.4302 17.4263L16.7122 18.1443C16.3998 18.4567 15.8933 18.4567 15.5808 18.1443L9.56153 12.125C9.24911 11.8125 8.74258 11.8125 8.43016 12.125L2.41085 18.1443C2.09843 18.4567 1.5919 18.4567 1.27948 18.1443L0.561535 17.4263Z" fill="black" stroke="white" stroke-width="0.2"/>
</svg>
